<svg xmlns="http://www.w3.org/2000/svg" viewBox="0 0 386.92 264.6"><title>Asset 10</title><g id="Layer_2" data-name="Layer 2"><g id="Layer_1-2" data-name="Layer 1"><path d="M26.37,158.66A26.17,26.17,0,0,1,0,132.7q0-.28,0-.56c0-14.25,12.12-26.22,26.45-26.22,5.64,0,12.19,1.75,16.39,5.64v9.15c-5.64-5.41-11.13-7.47-16.77-7.47-10.29,0-18.37,8.46-18.37,19,0,11.13,7.93,19.13,19,19.13,5.87,0,11.2-2.9,16.16-7.7V153C38.87,156.52,32.16,158.66,26.37,158.66Z" fill="#f1f1f2"/><path d="M52.51,157.67V106.83H85.13V114H60.21v21H82.39v7.24H60.21v8.16H85.13v7.24Z" fill="#f1f1f2"/><path d="M133.6,159.5l-31.32-36.67v34.83H95.19V105h1.07l31.4,36.43V106.83h7V159.5Z" fill="#f1f1f2"/><path d="M164.62,114v43.6h-7.77V114H141.52v-7.2h37.73V114Z" fill="#f1f1f2"/><path d="M186.11,157.67V106.83h32.62V114H193.8v21H216v7.24H193.8v8.16h24.92v7.24Z" fill="#f1f1f2"/><path d="M252.18,143.41l10.75,14.25h-9.22L244.56,145c-1.22.08-2.44.08-3.73.08h-4.34v12.58h-7.7V106.83h10.67c15.17,0,24.31,5,24.31,18.06C263.77,133.43,259.35,140.36,252.18,143.41ZM242,114.15h-5.56v23.7h4.65c8.31,0,15-3.73,15-12.42C256.15,117.12,249.74,114.15,242,114.15Z" fill="#f1f1f2"/><path d="M316.12,142.42l-16.84-18v33.23h-7.62V105h.91l24.31,26.75L341.2,105h.92v52.59h-7.7V124.44l-16.77,18Z" fill="#f1f1f2"/><path d="M354.3,157.67V106.83h32.62V114H362v21h22.18v7.24H362v8.16h24.92v7.24Z" fill="#f1f1f2"/><path d="M307.46,177.29a122.24,122.24,0,0,1-227.32,0H69.44a132.25,132.25,0,0,0,248.73,0Z" fill="#f1f1f2"/><path d="M81.38,84.29a122.23,122.23,0,0,1,224.85,0H317a132.25,132.25,0,0,0-246.47,0Z" fill="#f1f1f2"/></g></g></svg>