<svg viewBox="0 0 406.58 264.51">
<path d="M26.37,158.63A26.17,26.17,0,0,1,0,132.1c0-14.25,12.12-26.22,26.45-26.22,5.64,0,12.19,1.75,16.39,5.64v9.15c-5.64-5.41-11.13-7.47-16.77-7.47-10.29,0-18.37,8.46-18.37,19.05,0,11.13,7.93,19.13,19,19.13,5.87,0,11.2-2.9,16.16-7.7V153C38.87,156.49,32.16,158.63,26.37,158.63Z" fill="#f1f1f2"/><path d="M52.51,157.64V106.8H85.13V114H60.21v21H82.39v7.24H60.21v8.16H85.13v7.24Z" fill="#f1f1f2"/><path d="M133.6,159.47,102.28,122.8v34.83H95.19V105h1.07l31.4,36.43V106.8h7v52.67Z" fill="#f1f1f2"/><path d="M164.62,114v43.6h-7.77V114H141.52V106.8h37.73V114Z" fill="#f1f1f2"/><path d="M186.11,157.64V106.8h32.62V114H193.8v21H216v7.24H193.8v8.16h24.92v7.24Z" fill="#f1f1f2"/><path d="M252.18,143.38l10.75,14.25h-9.22L244.56,145c-1.22.08-2.44.08-3.73.08h-4.34v12.58h-7.7V106.8h10.67c15.17,0,24.31,5,24.31,18.06C263.77,133.4,259.35,140.33,252.18,143.38ZM242,114.12h-5.56v23.7h4.65c8.31,0,15-3.73,15-12.42C256.15,117.09,249.74,114.12,242,114.12Z" fill="#f1f1f2"/><path d="M316.12,142.39l-16.84-18v33.23h-7.62V105h.91l24.31,26.75L341.2,105h.92v52.59h-7.7V124.41l-16.77,18Z" fill="#f1f1f2"/><path d="M354.3,157.64V106.8h32.62V114H362v21h22.18v7.24H362v8.16h24.92v7.24Z" fill="#f1f1f2"/><path d="M402,158.63a4.61,4.61,0,1,1,4.57-4.57A4.59,4.59,0,0,1,402,158.63Zm-3.73-12.35V106.8h7.47v39.48Z" fill="#f1f1f2"/><path d="M307.46,177.26a122.24,122.24,0,0,1-227.32,0H69.44a132.25,132.25,0,0,0,248.73,0Z" fill="#f1f1f2"/><path d="M81.38,84.26a122.23,122.23,0,0,1,224.85,0H317a132.25,132.25,0,0,0-246.47,0Z" fill="#f1f1f2"/>
</svg>